<svg xmlns="http://www.w3.org/2000/svg" viewBox="0 0 1200 675" role="img" aria-labelledby="title"><title id="title">Skizze einer hellen Tessiner Schlucht mit smaragdgrünem Becken</title><rect width="1200" height="675" fill="#eef0f2"/><path d="M0 0h390L330 675H0Zm1200 0H810l60 675h330Z" fill="#e2ddd3" stroke="#6f777b" stroke-width="9"/><ellipse cx="600" cy="540" rx="310" ry="115" fill="#9fddd3" stroke="#267b9b" stroke-width="9"/><path d="M540 0c10 180-55 285-15 420h150c35-140-30-250-15-420Z" fill="#b8e3f2" stroke="#267b9b" stroke-width="8"/><g fill="#ffb44c" stroke="#263238" stroke-width="7"><circle cx="475" cy="455" r="22"/><circle cx="590" cy="430" r="22"/><circle cx="710" cy="460" r="22"/></g><g stroke="#263238" stroke-width="7" stroke-linecap="round"><path d="M475 477v70m0-40-30 22m30-22 30 22m-30 18-22 38m22-38 22 38"/><path d="M590 452v75m0-42-30 22m30-22 30 22m-30 20-22 38m22-38 22 38"/><path d="M710 482v65m0-38-30 22m30-22 30 22m-30 16-22 38m22-38 22 38"/></g></svg>
