<svg xmlns="http://www.w3.org/2000/svg" viewBox="0 0 1200 675" role="img" aria-labelledby="title"><title id="title">Skizze einer Sicherheits-Einweisung</title><rect width="1200" height="675" fill="#eef0f2"/><g stroke="#263238" stroke-width="9" stroke-linecap="round"><circle cx="260" cy="180" r="45" fill="#ffb44c"/><path d="M260 225v210m0-120-95 65m95-65 115 5m-115 115-55 115m55-115 55 115"/></g><path d="M200 285h120v170H200Z" fill="#5fa9bf" stroke="#263238" stroke-width="8"/><path d="m390 315 95-70m-70 110 95-10m-105 55 95 50" fill="none" stroke="#267b9b" stroke-width="8" stroke-linecap="round"/><g fill="#ffb44c" stroke="#263238" stroke-width="7"><circle cx="600" cy="300" r="26"/><circle cx="735" cy="280" r="26"/><circle cx="870" cy="300" r="26"/><circle cx="1005" cy="280" r="26"/></g><g stroke="#263238" stroke-width="8" stroke-linecap="round"><path d="M600 326v140m0-75-45 35m45-35 45 35m-45 40-35 80m35-80 35 80"/><path d="M735 306v160m0-85-45 35m45-35 45 35m-45 50-35 80m35-80 35 80"/><path d="M870 326v140m0-75-45 35m45-35 45 35m-45 40-35 80m35-80 35 80"/><path d="M1005 306v160m0-85-45 35m45-35 45 35m-45 50-35 80m35-80 35 80"/></g></svg>
